<mxfile host="app.diagrams.net" agent="Mozilla/5.0 (Windows NT 10.0; Win64; x64) AppleWebKit/537.36 (KHTML, like Gecko) Chrome/136.0.0.0 Safari/537.36" version="26.3.0">
  <diagram name="Page-1" id="ZBwbF7jnLxYWSlf3-tpN">
    <mxGraphModel dx="1181" dy="630" grid="1" gridSize="10" guides="1" tooltips="1" connect="1" arrows="1" fold="1" page="1" pageScale="1" pageWidth="850" pageHeight="1100" math="0" shadow="0">
      <root>
        <mxCell id="0" />
        <mxCell id="1" parent="0" />
        <mxCell id="Q4wnqgjxaw8BFZsFfzFm-1" value="Arduino Mega&amp;nbsp;" style="rounded=0;whiteSpace=wrap;html=1;" vertex="1" parent="1">
          <mxGeometry x="220" y="410" width="420" height="190" as="geometry" />
        </mxCell>
        <mxCell id="Q4wnqgjxaw8BFZsFfzFm-2" value="6 Digit 7 Seg Disp" style="rounded=0;whiteSpace=wrap;html=1;" vertex="1" parent="1">
          <mxGeometry x="230" y="760" width="110" height="40" as="geometry" />
        </mxCell>
        <mxCell id="Q4wnqgjxaw8BFZsFfzFm-3" value="&lt;font style=&quot;font-size: 8px;&quot;&gt;CLK&lt;/font&gt;" style="endArrow=none;html=1;rounded=0;" edge="1" parent="1">
          <mxGeometry width="50" height="50" relative="1" as="geometry">
            <mxPoint x="230" y="760" as="sourcePoint" />
            <mxPoint x="230" y="600" as="targetPoint" />
          </mxGeometry>
        </mxCell>
        <mxCell id="Q4wnqgjxaw8BFZsFfzFm-4" value="&lt;font style=&quot;font-size: 8px;&quot;&gt;CS&lt;/font&gt;" style="endArrow=none;html=1;rounded=0;" edge="1" parent="1">
          <mxGeometry width="50" height="50" relative="1" as="geometry">
            <mxPoint x="250" y="760" as="sourcePoint" />
            <mxPoint x="250" y="600" as="targetPoint" />
          </mxGeometry>
        </mxCell>
        <mxCell id="Q4wnqgjxaw8BFZsFfzFm-5" value="&lt;font style=&quot;font-size: 8px;&quot;&gt;DIN&lt;/font&gt;" style="endArrow=none;html=1;rounded=0;" edge="1" parent="1">
          <mxGeometry width="50" height="50" relative="1" as="geometry">
            <mxPoint x="270" y="760" as="sourcePoint" />
            <mxPoint x="270" y="600" as="targetPoint" />
          </mxGeometry>
        </mxCell>
        <mxCell id="Q4wnqgjxaw8BFZsFfzFm-7" value="" style="endArrow=none;html=1;rounded=0;fillColor=#d80073;strokeColor=#A50040;" edge="1" parent="1">
          <mxGeometry width="50" height="50" relative="1" as="geometry">
            <mxPoint x="290" y="760" as="sourcePoint" />
            <mxPoint x="290" y="600" as="targetPoint" />
          </mxGeometry>
        </mxCell>
        <mxCell id="Q4wnqgjxaw8BFZsFfzFm-8" value="" style="endArrow=none;html=1;rounded=0;fillColor=#a0522d;strokeColor=#6D1F00;" edge="1" parent="1">
          <mxGeometry width="50" height="50" relative="1" as="geometry">
            <mxPoint x="310" y="760" as="sourcePoint" />
            <mxPoint x="310" y="600" as="targetPoint" />
          </mxGeometry>
        </mxCell>
        <mxCell id="Q4wnqgjxaw8BFZsFfzFm-9" value="&lt;font style=&quot;font-size: 8px;&quot;&gt;D10&lt;/font&gt;" style="text;html=1;align=center;verticalAlign=middle;whiteSpace=wrap;rounded=0;" vertex="1" parent="1">
          <mxGeometry x="220" y="590" width="20" height="10" as="geometry" />
        </mxCell>
        <mxCell id="Q4wnqgjxaw8BFZsFfzFm-10" value="&lt;font style=&quot;font-size: 8px;&quot;&gt;D11&lt;/font&gt;" style="text;html=1;align=center;verticalAlign=middle;whiteSpace=wrap;rounded=0;" vertex="1" parent="1">
          <mxGeometry x="240" y="590" width="20" height="10" as="geometry" />
        </mxCell>
        <mxCell id="Q4wnqgjxaw8BFZsFfzFm-11" value="&lt;font style=&quot;font-size: 8px;&quot;&gt;D12&lt;/font&gt;" style="text;html=1;align=center;verticalAlign=middle;whiteSpace=wrap;rounded=0;" vertex="1" parent="1">
          <mxGeometry x="260" y="590" width="20" height="10" as="geometry" />
        </mxCell>
      </root>
    </mxGraphModel>
  </diagram>
</mxfile>
